<svg width="20" height="20" viewBox="0 0 20 20" fill="none" xmlns="http://www.w3.org/2000/svg">
<path d="M10 16.5C10.2188 16.5 10.8438 16.2812 11.4688 15C11.75 14.4375 12 13.7812 12.1562 13H7.8125C8 13.7812 8.21875 14.4375 8.5 15C9.15625 16.2812 9.75 16.5 10 16.5ZM7.5625 11.5H12.4062C12.4688 11.0312 12.5 10.5312 12.5 10C12.5 9.5 12.4688 9 12.4062 8.5H7.5625C7.5 9 7.5 9.5 7.5 10C7.5 10.5312 7.5 11.0312 7.5625 11.5ZM7.8125 7H12.1562C12 6.25 11.75 5.59375 11.4688 5.03125C10.8438 3.75 10.2188 3.5 10 3.5C9.75 3.5 9.15625 3.75 8.5 5.03125C8.21875 5.59375 8 6.25 7.8125 7ZM13.9062 8.5C13.9688 9 13.9688 9.5 13.9688 10C13.9688 10.5312 13.9688 11.0312 13.9062 11.5H16.3125C16.4375 11.0312 16.5 10.5312 16.5 10C16.5 9.5 16.4375 9 16.3125 8.5H13.9062ZM15.75 7C15.0938 5.71875 14 4.6875 12.6875 4.09375C13.125 4.90625 13.4688 5.90625 13.6875 7H15.75ZM6.28125 7C6.5 5.90625 6.84375 4.90625 7.28125 4.09375C5.96875 4.6875 4.875 5.71875 4.21875 7H6.28125ZM3.65625 8.5C3.5625 9 3.5 9.5 3.5 10C3.5 10.5312 3.53125 11.0312 3.65625 11.5H6.0625C6 11.0312 6 10.5312 6 10C6 9.5 6 9 6.0625 8.5H3.65625ZM12.6875 15.9375C14 15.3438 15.0938 14.3125 15.75 13H13.6875C13.4688 14.125 13.125 15.125 12.6875 15.9375ZM7.28125 15.9375C6.84375 15.125 6.5 14.125 6.28125 13H4.21875C4.875 14.3125 5.96875 15.3438 7.28125 15.9375ZM10 18C7.125 18 4.5 16.5 3.0625 14C1.625 11.5312 1.625 8.5 3.0625 6C4.5 3.53125 7.125 2 10 2C12.8438 2 15.4688 3.53125 16.9062 6C18.3438 8.5 18.3438 11.5312 16.9062 14C15.4688 16.5 12.8438 18 10 18Z" fill="#242424"/>
</svg>
