<svg width="20" height="20" viewBox="0 0 20 20" fill="none" xmlns="http://www.w3.org/2000/svg">
<path d="M5 2.75V5.5H3.5V2.75C3.5 2.34375 3.8125 2 4.25 2C4.65625 2 5 2.34375 5 2.75ZM10.5 2.75V5.5H9V2.75C9 2.34375 9.3125 2 9.75 2C10.1562 2 10.5 2.34375 10.5 2.75ZM1.75 6.5H2H3.5H10.5H12H12.25C12.6562 6.5 13 6.84375 13 7.25C13 7.6875 12.6562 8 12.25 8H12V8.625C11.4375 8.90625 10.9062 9.28125 10.5 9.75V8H3.5V10C3.5 11.9375 5.0625 13.5 7 13.5C7.75 13.5 8.4375 13.2812 9.03125 12.875C9 13.0625 9 13.2812 9 13.5C9 13.875 9.03125 14.2188 9.09375 14.5625C8.65625 14.75 8.21875 14.875 7.75 14.9688V17.25C7.75 17.6875 7.40625 18 7 18C6.5625 18 6.25 17.6875 6.25 17.25V14.9688C3.84375 14.5938 2 12.5312 2 10V8H1.75C1.3125 8 1 7.6875 1 7.25C1 6.84375 1.3125 6.5 1.75 6.5ZM19 13.5C19 15.125 18.125 16.5938 16.75 17.4062C15.3438 18.2188 13.625 18.2188 12.25 17.4062C10.8438 16.5938 10 15.125 10 13.5C10 11.9062 10.8438 10.4375 12.25 9.625C13.625 8.8125 15.3438 8.8125 16.75 9.625C18.125 10.4375 19 11.9062 19 13.5ZM16.5938 12.1562C16.4062 11.9688 16.0625 11.9688 15.875 12.1562L14 14.0625L13.0938 13.1562C12.9062 12.9688 12.5625 12.9688 12.375 13.1562C12.1875 13.3438 12.1875 13.6875 12.375 13.875L13.625 15.125C13.8125 15.3125 14.1562 15.3125 14.3438 15.125L16.5938 12.875C16.7812 12.6875 16.7812 12.3438 16.5938 12.1562Z" fill="#242424"/>
</svg>
