<svg width="20" height="20" viewBox="0 0 20 20" fill="none" xmlns="http://www.w3.org/2000/svg">
<path d="M4.5 7C3.59375 7 2.78125 6.53125 2.3125 5.75C1.875 5 1.875 4.03125 2.3125 3.25C2.78125 2.5 3.59375 2 4.5 2C5.375 2 6.1875 2.5 6.65625 3.25C7.09375 4.03125 7.09375 5 6.65625 5.75C6.1875 6.53125 5.375 7 4.5 7ZM16 7C15.0938 7 14.2812 6.53125 13.8125 5.75C13.375 5 13.375 4.03125 13.8125 3.25C14.2812 2.5 15.0938 2 16 2C16.875 2 17.6875 2.5 18.1562 3.25C18.5938 4.03125 18.5938 5 18.1562 5.75C17.6875 6.53125 16.875 7 16 7ZM0 11.3438C0 9.5 1.46875 8 3.3125 8H4.65625C5.15625 8 5.625 8.125 6.0625 8.3125C6 8.53125 6 8.78125 6 9C6 10.2188 6.5 11.2812 7.34375 12H7.3125H0.65625C0.28125 12 0 11.7188 0 11.3438ZM12.6562 12H12.625C13.4688 11.2812 14 10.2188 14 9C14 8.78125 13.9688 8.53125 13.9375 8.3125C14.3438 8.125 14.8125 8 15.3125 8H16.6562C18.5 8 20 9.5 20 11.3438C20 11.7188 19.6875 12 19.3125 12H12.6562ZM10 7.5C9.4375 7.5 8.96875 7.8125 8.6875 8.25C8.40625 8.71875 8.40625 9.3125 8.6875 9.75C8.96875 10.2188 9.4375 10.5 10 10.5C10.5312 10.5 11 10.2188 11.2812 9.75C11.5625 9.3125 11.5625 8.71875 11.2812 8.25C11 7.8125 10.5312 7.5 10 7.5ZM10 12C8.90625 12 7.9375 11.4375 7.375 10.5C6.84375 9.59375 6.84375 8.4375 7.375 7.5C7.9375 6.59375 8.90625 6 10 6C11.0625 6 12.0312 6.59375 12.5938 7.5C13.125 8.4375 13.125 9.59375 12.5938 10.5C12.0312 11.4375 11.0625 12 10 12ZM8.15625 14.5C6.90625 14.5 5.875 15.375 5.5625 16.5H14.4062C14.0938 15.375 13.0625 14.5 11.8125 14.5H8.15625ZM8.15625 13H11.8125C14.125 13 16 14.875 16 17.1875C16 17.6562 15.625 18 15.1562 18H4.8125C4.34375 18 4 17.625 4 17.1875C4 14.875 5.84375 13 8.15625 13Z" fill="#242424"/>
</svg>
